<svg xmlns="http://www.w3.org/2000/svg" viewBox="0 0 100 100">
  <defs>
    <radialGradient id="grad1" cx="50%" cy="50%" r="50%" fx="50%" fy="50%">
      <stop offset="0%" style="stop-color:#4ade80;stop-opacity:1" />
      <stop offset="100%" style="stop-color:#166534;stop-opacity:1" />
    </radialGradient>
  </defs>
  <circle cx="50" cy="50" r="48" fill="white" stroke="#166534" stroke-width="2"/>
  <path d="M50 50 Q30 20 50 10 Q70 20 50 50 Z" fill="url(#grad1)" transform="rotate(0 50 50)"/>
  <path d="M50 50 Q30 20 50 10 Q70 20 50 50 Z" fill="url(#grad1)" transform="rotate(90 50 50)"/>
  <path d="M50 50 Q30 20 50 10 Q70 20 50 50 Z" fill="url(#grad1)" transform="rotate(180 50 50)"/>
  <path d="M50 50 Q30 20 50 10 Q70 20 50 50 Z" fill="url(#grad1)" transform="rotate(270 50 50)"/>
  <path d="M50 50 L50 90" stroke="#166534" stroke-width="4" stroke-linecap="round"/>
</svg>